<svg width="128" height="128" xmlns="http://www.w3.org/2000/svg"><path fill="#666" d="M92.587 39.172c-1.464-.962-3.229-.488-5.174 2.746-1.934 3.24-3.076 3.877-3.076 3.877s-3.062-3.55-5.177-6.623c-2.09-3.074-4.353-2.907-4.353-2.907H60.255s-10.178 3.397-15.668 13.897c-3.71 7.097-4.1 10.201-3.965 11.475h-5.257v2.747h1.139v5.472h-2.695A2.801 2.801 0 0 0 31 72.668v28.917c0 1.061.608 1.957 1.484 2.433.143 1.558.754 2.746 1.532 2.746.717 0 1.303-1.001 1.515-2.37h14.517c.213 1.369.798 2.37 1.515 2.37.755 0 1.366-1.159 1.524-2.683.933-.459 1.593-1.392 1.593-2.496V72.668a2.818 2.818 0 0 0-2.818-2.812h-2.428v-5.472h1.142v-2.747H46.17c.312-1.744 1.337-6.14 4.23-10.18 3.73-5.172 7.44-6.787 7.44-6.787v57.859h.106c-.049.267-.08.54-.08.82 0 2.48 2.02 4.486 4.488 4.486 2.48 0 4.5-2.006 4.5-4.486 0-.28-.035-.553-.084-.82h.12V67.936h1.94v34.748h.219c-.032.22-.07.436-.07.665 0 2.48 2.015 4.486 4.506 4.486 2.48 0 4.48-2.006 4.48-4.486a4.65 4.65 0 0 0-.095-.924V46.937s3.406 4.031 5.51 4.68c2.1.646 5.322.158 8.238-4.528 2.9-4.686 2.427-6.95.97-7.917zM47.655 69.856h-9.366v-5.472h3.021a2.651 2.651 0 0 0 3.81 0h2.535v5.472z"/><path fill="#666" d="M92.937 36.7l2.473-7.57-6.927-2.341-4.043 11.22 2.413.915c1.567-3.914 6.084-2.224 6.084-2.224m-22.004-4.091c.31-.296.588-.632.83-1.008a7.327 7.327 0 0 0 2.195-2.189c-.488.1-.953.155-1.37.18a7.1 7.1 0 0 0 .116-.662 8.37 8.37 0 0 0 1.696-.301 7.46 7.46 0 0 0 .717-2.626 6.127 6.127 0 0 1-2.534 1.343 2.008 2.008 0 0 0-.419-.577 5.559 5.559 0 0 0 2.979-1.684C75.003 21.148 71.85 18 67.983 18c-3.87 0-7.024 3.148-7.162 7.085a5.553 5.553 0 0 0 2.976 1.684 2.01 2.01 0 0 0-.417.577 6.152 6.152 0 0 1-2.536-1.343c.077.935.33 1.822.717 2.626a8.167 8.167 0 0 0 1.699.3 7.1 7.1 0 0 0 .115.664 9.927 9.927 0 0 1-1.372-.181 7.336 7.336 0 0 0 2.198 2.19c.241.375.517.711.827 1.007.809.766 1.828 1.234 2.955 1.236 1.122-.002 2.144-.47 2.95-1.236m-5.86-.89c-.76-.918-1.233-2.2-1.233-3.621-.003-.557.413-1.025 1.202-1.38.778-.35 1.86-.537 2.941-.534 1.08-.003 2.161.183 2.939.533.786.356 1.205.824 1.202 1.38 0 1.421-.48 2.704-1.237 3.622-.754.921-1.782 1.475-2.904 1.475-1.125 0-2.152-.554-2.91-1.475"/></svg>